<?xml version="1.0" encoding="utf-8"?>
<svg version="1.1" xmlns:xlink="http://www.w3.org/1999/xlink" width="48px" height="44px" xmlns="http://www.w3.org/2000/svg">
  <g transform="matrix(1 0 0 1 -123 -298 )">
    <path d="M 123 298  L 171 298  L 171 342  L 123 342  L 123 298  " fill-rule="nonzero" fill="#cccccc" stroke="none" />
    <path d="M 126 301  L 168 301  L 168 339  L 126 339  L 126 301  " fill-rule="nonzero" fill="#ffffff" stroke="none" />
    <path d="M 151.26 311.2  C 149.412 311.2  147.96 309.748  147.96 307.9  C 147.96 306.052  149.412 304.6  151.26 304.6  C 153.108 304.6  154.56 306.052  154.56 307.9  C 154.56 309.748  153.108 311.2  151.26 311.2  " fill-rule="nonzero" fill="#cccccc" stroke="none" />
    <path d="M 127 338  L 127 318.2  L 137 309.2  L 151 318.2  L 159 314.6  L 167 318.2  L 167 338  L 127 338  " fill-rule="nonzero" fill="#169bd5" stroke="none" />
  </g>
</svg>