<?xml version="1.0" encoding="utf-8"?>
<svg version="1.1" xmlns:xlink="http://www.w3.org/1999/xlink" width="41px" height="41px" xmlns="http://www.w3.org/2000/svg">
  <g transform="matrix(1 0 0 1 -23 -246 )">
    <path d="M 43.5 246  C 54.98 246  64 255.02  64 266.5  C 64 277.98  54.98 287  43.5 287  C 32.02 287  23 277.98  23 266.5  C 23 255.02  32.02 246  43.5 246  Z " fill-rule="nonzero" fill="#ffffff" stroke="none" />
    <path d="M 43.5 246.5  C 54.7 246.5  63.5 255.3  63.5 266.5  C 63.5 277.7  54.7 286.5  43.5 286.5  C 32.3 286.5  23.5 277.7  23.5 266.5  C 23.5 255.3  32.3 246.5  43.5 246.5  Z " stroke-width="1" stroke="#797979" fill="none" />
  </g>
</svg>