<?xml version="1.0" encoding="utf-8"?>
<svg version="1.1" xmlns:xlink="http://www.w3.org/1999/xlink" width="244px" height="100px" xmlns="http://www.w3.org/2000/svg">
  <defs>
    <mask fill="white" id="clip3">
      <path d="M 9 91.5492957746479  L 9 9.1549295774648  C 8.97058823529412 6.73599472840814  -0.989742352272813 2.23212669913024  1.02521008403363 0.704225352112657  C 2.95230245370882 -0.757053323453117  16.7883549503719 0.704225352112657  19.7352941176471 0.704225352112657  L 233.235294117647 0.704225352112657  C 239.263529411765 0.704225352112657  244 4.42253521126762  244 9.1549295774648  L 244 91.5492957746479  C 244 96.2816901408451  239.263529411765 100  233.235294117647 100  L 19.7352941176471 100  C 13.7070588235294 100  8.97058823529412 96.2816901408451  9 91.5492957746479  Z " fill-rule="evenodd" />
    </mask>
  </defs>
  <g transform="matrix(1 0 0 1 -75 -268 )">
    <path d="M 9 91.5492957746479  L 9 9.1549295774648  C 8.97058823529412 6.73599472840814  -0.989742352272813 2.23212669913024  1.02521008403363 0.704225352112657  C 2.95230245370882 -0.757053323453117  16.7883549503719 0.704225352112657  19.7352941176471 0.704225352112657  L 233.235294117647 0.704225352112657  C 239.263529411765 0.704225352112657  244 4.42253521126762  244 9.1549295774648  L 244 91.5492957746479  C 244 96.2816901408451  239.263529411765 100  233.235294117647 100  L 19.7352941176471 100  C 13.7070588235294 100  8.97058823529412 96.2816901408451  9 91.5492957746479  Z " fill-rule="nonzero" fill="#ffffff" stroke="none" transform="matrix(1 0 0 1 75 268 )" />
    <path d="M 9 91.5492957746479  L 9 9.1549295774648  C 8.97058823529412 6.73599472840814  -0.989742352272813 2.23212669913024  1.02521008403363 0.704225352112657  C 2.95230245370882 -0.757053323453117  16.7883549503719 0.704225352112657  19.7352941176471 0.704225352112657  L 233.235294117647 0.704225352112657  C 239.263529411765 0.704225352112657  244 4.42253521126762  244 9.1549295774648  L 244 91.5492957746479  C 244 96.2816901408451  239.263529411765 100  233.235294117647 100  L 19.7352941176471 100  C 13.7070588235294 100  8.97058823529412 96.2816901408451  9 91.5492957746479  Z " stroke-width="2" stroke="#797979" fill="none" transform="matrix(1 0 0 1 75 268 )" mask="url(#clip3)" />
  </g>
</svg>