<?xml version="1.0" encoding="utf-8"?>
<svg version="1.1" xmlns:xlink="http://www.w3.org/1999/xlink" width="244px" height="95px" xmlns="http://www.w3.org/2000/svg">
  <defs>
    <mask fill="white" id="clip4">
      <path d="M 235 86.9718309859154  L 235 8.69718309859157  C 235.029411764706 6.39919499198769  244.989742352273 2.12052036417369  242.974789915966 0.669014084507048  C 241.047697546291 -0.719200657280503  227.211645049628 0.669014084507048  224.264705882353 0.669014084507048  L 10.7647058823529 0.669014084507048  C 4.73647058823524 0.669014084507048  0 4.20140845070427  0 8.69718309859157  L 0 86.9718309859154  C 0 91.4676056338029  4.73647058823524 95  10.7647058823529 95  L 224.264705882353 95  C 230.292941176471 95  235.029411764706 91.4676056338029  235 86.9718309859154  Z " fill-rule="evenodd" />
    </mask>
  </defs>
  <g transform="matrix(1 0 0 1 -65 -425 )">
    <path d="M 235 86.9718309859154  L 235 8.69718309859157  C 235.029411764706 6.39919499198769  244.989742352273 2.12052036417369  242.974789915966 0.669014084507048  C 241.047697546291 -0.719200657280503  227.211645049628 0.669014084507048  224.264705882353 0.669014084507048  L 10.7647058823529 0.669014084507048  C 4.73647058823524 0.669014084507048  0 4.20140845070427  0 8.69718309859157  L 0 86.9718309859154  C 0 91.4676056338029  4.73647058823524 95  10.7647058823529 95  L 224.264705882353 95  C 230.292941176471 95  235.029411764706 91.4676056338029  235 86.9718309859154  Z " fill-rule="nonzero" fill="#ffffff" stroke="none" transform="matrix(1 0 0 1 65 425 )" />
    <path d="M 235 86.9718309859154  L 235 8.69718309859157  C 235.029411764706 6.39919499198769  244.989742352273 2.12052036417369  242.974789915966 0.669014084507048  C 241.047697546291 -0.719200657280503  227.211645049628 0.669014084507048  224.264705882353 0.669014084507048  L 10.7647058823529 0.669014084507048  C 4.73647058823524 0.669014084507048  0 4.20140845070427  0 8.69718309859157  L 0 86.9718309859154  C 0 91.4676056338029  4.73647058823524 95  10.7647058823529 95  L 224.264705882353 95  C 230.292941176471 95  235.029411764706 91.4676056338029  235 86.9718309859154  Z " stroke-width="2" stroke="#797979" fill="none" transform="matrix(1 0 0 1 65 425 )" mask="url(#clip4)" />
  </g>
</svg>