<?xml version="1.0" encoding="utf-8"?>
<svg version="1.1" xmlns:xlink="http://www.w3.org/1999/xlink" width="244px" height="108px" xmlns="http://www.w3.org/2000/svg">
  <defs>
    <mask fill="white" id="clip5">
      <path d="M 9 98.8732394366197  L 9 9.88732394366199  C 8.97058823529412 7.27487430668077  -0.989742352272813 2.41069683506066  1.02521008403363 0.760563380281672  C 2.95230245370882 -0.817617589329375  16.7883549503719 0.760563380281672  19.7352941176471 0.760563380281672  L 233.235294117647 0.760563380281672  C 239.263529411765 0.760563380281672  244 4.77633802816904  244 9.88732394366199  L 244 98.8732394366197  C 244 103.984225352113  239.263529411765 108  233.235294117647 108  L 19.7352941176471 108  C 13.7070588235294 108  8.97058823529412 103.984225352113  9 98.8732394366197  Z " fill-rule="evenodd" />
    </mask>
  </defs>
  <g transform="matrix(1 0 0 1 -75 -104 )">
    <path d="M 9 98.8732394366197  L 9 9.88732394366199  C 8.97058823529412 7.27487430668077  -0.989742352272813 2.41069683506066  1.02521008403363 0.760563380281672  C 2.95230245370882 -0.817617589329375  16.7883549503719 0.760563380281672  19.7352941176471 0.760563380281672  L 233.235294117647 0.760563380281672  C 239.263529411765 0.760563380281672  244 4.77633802816904  244 9.88732394366199  L 244 98.8732394366197  C 244 103.984225352113  239.263529411765 108  233.235294117647 108  L 19.7352941176471 108  C 13.7070588235294 108  8.97058823529412 103.984225352113  9 98.8732394366197  Z " fill-rule="nonzero" fill="#ffffff" stroke="none" transform="matrix(1 0 0 1 75 104 )" />
    <path d="M 9 98.8732394366197  L 9 9.88732394366199  C 8.97058823529412 7.27487430668077  -0.989742352272813 2.41069683506066  1.02521008403363 0.760563380281672  C 2.95230245370882 -0.817617589329375  16.7883549503719 0.760563380281672  19.7352941176471 0.760563380281672  L 233.235294117647 0.760563380281672  C 239.263529411765 0.760563380281672  244 4.77633802816904  244 9.88732394366199  L 244 98.8732394366197  C 244 103.984225352113  239.263529411765 108  233.235294117647 108  L 19.7352941176471 108  C 13.7070588235294 108  8.97058823529412 103.984225352113  9 98.8732394366197  Z " stroke-width="2" stroke="#797979" fill="none" transform="matrix(1 0 0 1 75 104 )" mask="url(#clip5)" />
  </g>
</svg>