<?xml version="1.0" encoding="utf-8"?>
<svg version="1.1" xmlns:xlink="http://www.w3.org/1999/xlink" width="244px" height="183px" xmlns="http://www.w3.org/2000/svg">
  <defs>
    <mask fill="white" id="clip6">
      <path d="M 9 167.535211267606  L 9 16.7535211267606  C 8.97058823529412 12.3268703529869  -0.989742352272813 4.08479185940833  1.02521008403363 1.28873239436617  C 2.95230245370882 -1.38540758191922  16.7883549503719 1.28873239436617  19.7352941176471 2  L 233.235294117647 2  C 239.263529411765 1.28873239436617  244 8.09323943661977  244 16.7535211267606  L 244 167.535211267606  C 244 176.195492957747  239.263529411765 183  233.235294117647 183  L 19.7352941176471 183  C 13.7070588235294 183  8.97058823529412 176.195492957747  9 167.535211267606  Z " fill-rule="evenodd" />
    </mask>
  </defs>
  <g transform="matrix(1 0 0 1 -509 -104 )">
    <path d="M 9 167.535211267606  L 9 16.7535211267606  C 8.97058823529412 12.3268703529869  -0.989742352272813 4.08479185940833  1.02521008403363 1.28873239436617  C 2.95230245370882 -1.38540758191922  16.7883549503719 1.28873239436617  19.7352941176471 2  L 233.235294117647 2  C 239.263529411765 1.28873239436617  244 8.09323943661977  244 16.7535211267606  L 244 167.535211267606  C 244 176.195492957747  239.263529411765 183  233.235294117647 183  L 19.7352941176471 183  C 13.7070588235294 183  8.97058823529412 176.195492957747  9 167.535211267606  Z " fill-rule="nonzero" fill="#ffffff" stroke="none" transform="matrix(1 0 0 1 509 104 )" />
    <path d="M 9 167.535211267606  L 9 16.7535211267606  C 8.97058823529412 12.3268703529869  -0.989742352272813 4.08479185940833  1.02521008403363 1.28873239436617  C 2.95230245370882 -1.38540758191922  16.7883549503719 1.28873239436617  19.7352941176471 2  L 233.235294117647 2  C 239.263529411765 1.28873239436617  244 8.09323943661977  244 16.7535211267606  L 244 167.535211267606  C 244 176.195492957747  239.263529411765 183  233.235294117647 183  L 19.7352941176471 183  C 13.7070588235294 183  8.97058823529412 176.195492957747  9 167.535211267606  Z " stroke-width="2" stroke="#797979" fill="none" transform="matrix(1 0 0 1 509 104 )" mask="url(#clip6)" />
  </g>
</svg>